<?xml version="1.0" encoding="UTF-8" standalone="no"?>
<svg
   viewBox="0 0 96 120"
   x="0px"
   y="0px"
   version="1.1"
   id="svg118"
   sodipodi:docname="helmet.svg"
   inkscape:export-filename="helmet.svg"
   inkscape:export-xdpi="96"
   inkscape:export-ydpi="96"
   inkscape:version="1.2.2 (b0a8486541, 2022-12-01)"
   xmlns:inkscape="http://www.inkscape.org/namespaces/inkscape"
   xmlns:sodipodi="http://sodipodi.sourceforge.net/DTD/sodipodi-0.dtd"
   xmlns="http://www.w3.org/2000/svg"
   xmlns:svg="http://www.w3.org/2000/svg">
  <sodipodi:namedview
     id="namedview120"
     pagecolor="#ffffff"
     bordercolor="#000000"
     borderopacity="0.25"
     inkscape:showpageshadow="2"
     inkscape:pageopacity="0.0"
     inkscape:pagecheckerboard="0"
     inkscape:deskcolor="#d1d1d1"
     showgrid="false"
     inkscape:zoom="4"
     inkscape:cx="76.5"
     inkscape:cy="46.125"
     inkscape:window-width="1904"
     inkscape:window-height="996"
     inkscape:window-x="47"
     inkscape:window-y="37"
     inkscape:window-maximized="0"
     inkscape:current-layer="svg118" />
  <defs
     id="defs80">
    <style
       id="style78">.cls-1{fill:none;}</style>
  </defs>
  <g
     data-name="Livello 2"
     id="g112"
     transform="matrix(1.2996012,0,0,1.2996012,-14.719727,0.03222634)">
    <g
       data-name="Livello 1"
       id="g110">
      <rect
         class="cls-1"
         width="96"
         height="96"
         id="rect82"
         x="0"
         y="0" />
      <path
         d="M 39.88,62.14 A 13.33,13.33 0 0 1 28.68,56 C 26.51,52.54 17.77,32.83 17.11,15.36 c -0.29,-7.68 0.93,-12 3.62,-13 2.69,-1 6,2.06 7.67,4.05 A 12.79,12.79 0 0 1 29.31,7.55 0.63,0.63 0 0 1 29.17,8.42 0.62,0.62 0 0 1 28.3,8.28 C 28.06,7.97 27.83,7.67 27.59,7.38 26.64,6.28 25.32,5.13 24.41,5.23 c -0.45,0 -0.84,0.45 -1.14,1.19 -1.68,4 10.4,41.6 13.24,46 a 39.35,39.35 0 0 1 4.28,8.9 0.6,0.6 0 0 1 -0.08,0.54 0.63,0.63 0 0 1 -0.48,0.27 z m -18,-58.71 a 2.28,2.28 0 0 0 -0.7,0.11 C 20,4 18,6.06 18.36,15.33 c 0.65,17.21 9.24,36.61 11.38,40 a 12.13,12.13 0 0 0 9.57,5.51 39.53,39.53 0 0 0 -3.85,-7.77 C 32.72,48.87 20.11,10.77 22.11,6 A 3,3 0 0 1 23.89,4.12 4.25,4.25 0 0 0 21.85,3.43 Z"
         id="path84"
         style="fill:#ecc953;fill-opacity:1" />
      <path
         d="M 22.58,8.94 A 0.63,0.63 0 0 1 22,8.31 1.9,1.9 0 0 1 22.84,6.62 c 1.73,-1.13 5.51,0.41 6.26,0.73 A 0.62,0.62 0 0 1 29.42,8.17 0.61,0.61 0 0 1 28.6,8.49 C 27,7.81 24.34,7.1 23.48,7.67 23.35,7.75 23.2,7.9 23.2,8.31 a 0.63,0.63 0 0 1 -0.62,0.63 z"
         id="path86"
         style="fill:#ecc953;fill-opacity:1" />
      <path
         d="M 47.09,66.26 A 0.61,0.61 0 0 1 46.67,66.1 L 44,63.72 a 0.62,0.62 0 0 1 -0.14,-0.19 l -4.45,-9 a 0.63,0.63 0 0 1 0.13,-0.73 0.63,0.63 0 0 1 0.74,-0.09 l 4.83,2.68 a 0.59,0.59 0 0 1 0.3,0.39 l 2.27,8.71 a 0.61,0.61 0 0 1 -0.28,0.69 0.62,0.62 0 0 1 -0.31,0.08 z m -2.15,-3.39 1,0.92 -1.68,-6.45 -2.85,-1.58 z"
         id="path88"
         style="fill:#ecc953;fill-opacity:1" />
      <path
         d="m 39.37,83.51 a 0.62,0.62 0 0 1 -0.32,-0.09 c -6,-3.52 -7.81,-7.76 -7.88,-7.94 A 0.62307704,0.62307704 0 0 1 32.32,75 c 0,0 1.75,4 7.36,7.34 a 0.63,0.63 0 0 1 -0.31,1.17 z"
         id="path90"
         style="fill:#ecc953;fill-opacity:1" />
      <path
         d="m 40,54.87 a 0.63,0.63 0 0 1 -0.56,-0.35 c -1.17,-2.41 -2.31,-3 -2.32,-3 a 0.63,0.63 0 0 1 -0.29,-0.83 0.61,0.61 0 0 1 0.81,-0.31 c 0.16,0.07 1.56,0.76 2.92,3.58 A 0.62,0.62 0 0 1 40.27,54.8 0.63,0.63 0 0 1 40,54.87 Z"
         id="path92"
         style="fill:#ecc953;fill-opacity:1" />
      <path
         d="m 56.12,62.14 h -0.35 a 0.63,0.63 0 0 1 -0.48,-0.27 0.6,0.6 0 0 1 -0.08,-0.54 39.35,39.35 0 0 1 4.28,-8.9 c 2.84,-4.39 14.92,-42 13.24,-46 -0.3,-0.74 -0.69,-1.14 -1.14,-1.19 -0.9,-0.1 -2.23,1 -3.18,2.15 -0.24,0.29 -0.47,0.59 -0.71,0.9 A 0.62,0.62 0 0 1 66.83,8.43 0.63,0.63 0 0 1 66.69,7.56 12.79,12.79 0 0 1 67.6,6.42 c 1.69,-2 4.86,-5 7.67,-4 2.81,1 3.91,5.32 3.62,13 C 78.23,32.84 69.49,52.55 67.32,56 a 13.33,13.33 0 0 1 -11.2,6.14 z m 16,-58.07 A 3,3 0 0 1 73.89,6 c 2,4.82 -10.61,42.92 -13.35,47.14 a 39.53,39.53 0 0 0 -3.85,7.77 12.13,12.13 0 0 0 9.57,-5.51 C 68.4,51.99 76.99,32.59 77.64,15.4 78,6.06 76,4 74.85,3.54 a 3.43,3.43 0 0 0 -2.74,0.53 z"
         id="path94"
         style="fill:#ecc953;fill-opacity:1" />
      <path
         d="M 73.42,8.94 A 0.63,0.63 0 0 1 72.8,8.31 C 72.8,7.9 72.65,7.75 72.52,7.67 71.66,7.1 69.04,7.81 67.45,8.49 A 0.62,0.62 0 1 1 67,7.35 c 0.75,-0.32 4.53,-1.86 6.26,-0.73 a 1.9,1.9 0 0 1 0.84,1.69 0.63,0.63 0 0 1 -0.68,0.63 z"
         id="path96"
         style="fill:#ecc953;fill-opacity:1" />
      <path
         d="m 48.05,54 h -0.12 a 14.28,14.28 0 0 1 -3.39,-0.46 c -3.48,-1 -5.29,-1.36 -6.72,-1.67 a 3.64,3.64 0 0 1 -1.62,-1 1.73,1.73 0 0 0 -1.2,-0.49 h -0.48 a 0.63,0.63 0 1 1 0,-1.25 H 35 a 2.94,2.94 0 0 1 2,0.79 2.55,2.55 0 0 0 1,0.69 c 1.45,0.31 3.28,0.72 6.79,1.68 a 11.87,11.87 0 0 0 6.26,0 c 3.51,-1 5.34,-1.37 6.79,-1.68 a 2.55,2.55 0 0 0 1,-0.69 2.94,2.94 0 0 1 2,-0.79 h 0.48 a 0.63,0.63 0 1 1 0,1.25 H 61 a 1.73,1.73 0 0 0 -1.17,0.46 3.64,3.64 0 0 1 -1.62,1 c -1.43,0.31 -3.24,0.72 -6.72,1.67 A 14.29,14.29 0 0 1 48.05,54 Z"
         id="path98"
         style="fill:#ecc953;fill-opacity:1" />
      <path
         d="m 48.91,66.26 a 0.62,0.62 0 0 1 -0.32,-0.09 0.61,0.61 0 0 1 -0.28,-0.69 l 2.27,-8.71 a 0.59,0.59 0 0 1 0.3,-0.39 l 4.83,-2.68 a 0.63,0.63 0 0 1 0.74,0.09 0.63,0.63 0 0 1 0.13,0.73 l -4.45,9 a 0.62,0.62 0 0 1 -0.14,0.19 l -2.66,2.39 a 0.61,0.61 0 0 1 -0.42,0.16 z m 2.81,-8.92 -1.72,6.45 1,-0.92 3.51,-7.11 z"
         id="path100"
         style="fill:#ecc953;fill-opacity:1" />
      <path
         d="m 54.11,90.69 a 2.09,2.09 0 0 1 -0.52,0 0.62,0.62 0 0 1 -0.3,-1 c 2.54,-2.7 3.09,-9.38 3.09,-9.45 a 0.62,0.62 0 0 1 0.39,-0.53 c 4.14,-1.64 8,-10.23 7.95,-12.74 a 7.22,7.22 0 0 0 -2,-4.23 71.27,71.27 0 0 1 -10.34,3.27 l -1.55,1.44 a 0.58,0.58 0 0 1 -0.15,0.11 l -2.39,1.17 a 0.61,0.61 0 0 1 -0.56,0 l -2.39,-1.17 a 0.58,0.58 0 0 1 -0.15,-0.11 l -1.55,-1.44 a 71.27,71.27 0 0 1 -10.34,-3.27 7.22,7.22 0 0 0 -2,4.23 c -0.07,2.51 3.81,11.1 7.95,12.74 a 0.62,0.62 0 0 1 0.39,0.53 c 0,0.07 0.55,6.75 3.09,9.45 a 0.62,0.62 0 0 1 -0.3,1 c -0.2,0 -5.17,1.19 -11.6,-10.71 a 1.17,1.17 0 0 1 0,-0.11 C 27.21,68.76 27.91,54.4 27.92,54.26 a 0.65,0.65 0 0 1 0.65,-0.59 0.63,0.63 0 0 1 0.6,0.66 c 0,0.14 -0.7,14.22 2.84,25.1 4,7.43 7.29,9.4 9,9.9 -1.79,-2.88 -2.37,-7.32 -2.5,-8.65 C 33.82,78.45 30,69.68 30,66.85 c 0,-2.83 2.57,-5.29 2.68,-5.39 a 0.64,0.64 0 0 1 0.66,-0.12 72.37,72.37 0 0 0 10.66,3.4 0.6,0.6 0 0 1 0.31,0.15 l 1.69,1.51 2,1 2,-1 1.61,-1.51 a 0.6,0.6 0 0 1 0.31,-0.15 71.93,71.93 0 0 0 10.67,-3.4 0.64,0.64 0 0 1 0.66,0.12 c 0.11,0.1 2.59,2.44 2.68,5.39 0.09,2.95 -3.79,11.6 -8.38,13.78 -0.13,1.33 -0.71,5.77 -2.5,8.65 1.67,-0.5 4.94,-2.46 9,-9.9 3.54,-10.88 2.85,-25 2.84,-25.1 a 0.63,0.63 0 0 1 0.6,-0.66 0.65,0.65 0 0 1 0.65,0.59 c 0,0.14 0.71,14.5 -2.91,25.61 a 1.17,1.17 0 0 1 0,0.11 C 59.88,89.75 55.57,90.69 54.11,90.69 Z M 64.64,79.63 Z"
         id="path102"
         style="fill:#ecc953;fill-opacity:1" />
      <path
         d="m 56.63,83.51 a 0.63,0.63 0 0 1 -0.31,-1.17 c 5.61,-3.29 7.34,-7.3 7.36,-7.34 a 0.62307704,0.62307704 0 0 1 1.15,0.48 c -0.07,0.18 -1.88,4.42 -7.88,7.94 a 0.62,0.62 0 0 1 -0.32,0.09 z"
         id="path104"
         style="fill:#ecc953;fill-opacity:1" />
      <path
         d="m 56,54.87 a 0.63,0.63 0 0 1 -0.27,-0.06 0.62,0.62 0 0 1 -0.29,-0.84 c 1.36,-2.82 2.76,-3.51 2.92,-3.58 a 0.62,0.62 0 0 1 0.82,0.32 0.62,0.62 0 0 1 -0.31,0.82 c 0,0 -1.14,0.58 -2.31,3 A 0.63,0.63 0 0 1 56,54.87 Z"
         id="path106"
         style="fill:#ecc953;fill-opacity:1" />
      <path
         d="m 48,58.36 h -0.15 l -3.18,-0.81 a 0.63,0.63 0 0 1 -0.46,-0.76 0.63,0.63 0 0 1 0.76,-0.45 l 3,0.77 3,-0.77 a 0.63,0.63 0 0 1 0.76,0.45 0.63,0.63 0 0 1 -0.46,0.76 l -3.18,0.81 z"
         id="path108"
         style="fill:#ecc953;fill-opacity:1" />
    </g>
  </g>
</svg>
